<svg width="81" height="81" viewBox="0 0 81 81" fill="none" xmlns="http://www.w3.org/2000/svg">
<path d="M80.1028 22.4915C79.8724 22.1554 79.5667 21.8811 79.2114 21.6917C78.8562 21.5022 78.4618 21.4032 78.0615 21.4029H24.7369L20.7005 7.10983C19.1175 1.48161 15.3561 0.874023 13.8134 0.874023H3.05074C1.67125 0.874023 0.555664 2.02082 0.555664 3.43594C0.555664 4.85106 1.67251 5.99778 3.05066 5.99778H13.8121C14.1525 5.99778 15.1915 5.99778 15.9001 8.51197L29.7859 60.9126C30.0874 62.0182 31.0686 62.7818 32.1878 62.7818H66.1052C67.1581 62.7818 68.0977 62.1045 68.4533 61.0867L80.4082 24.8316C80.6833 24.0459 80.569 23.1713 80.1029 22.4915H80.1028ZM64.3494 57.6594H34.0816L26.1393 26.5281H74.5141L64.3494 57.6594ZM59.4009 67.9741C55.9311 67.9741 53.1195 70.8611 53.1195 74.4241C53.1195 77.987 55.9311 80.874 59.4009 80.874C62.8708 80.874 65.6824 77.987 65.6824 74.4241C65.6824 70.8611 62.8708 67.9741 59.4009 67.9741ZM36.7877 67.9741C33.3178 67.9741 30.5062 70.8611 30.5062 74.4241C30.5062 77.987 33.3178 80.874 36.7877 80.874C40.2576 80.874 43.0691 77.987 43.0691 74.4241C43.0691 70.8611 40.2576 67.9741 36.7877 67.9741Z" fill="#EBEBEB"/>
</svg>
